<svg xmlns="http://www.w3.org/2000/svg" viewBox="0 0 192 192">
  <defs>
    <linearGradient id="bg" x1="0" y1="0" x2="1" y2="1">
      <stop offset="0%" stop-color="#e63946"/>
      <stop offset="100%" stop-color="#b8232f"/>
    </linearGradient>
  </defs>
  <rect width="192" height="192" rx="32" fill="url(#bg)"/>
  <path d="M46 91c5-31 27-49 50-49s45 18 50 49H46Z" fill="#ffcf6b"/>
  <path d="M43 104h106c5 0 9 4 9 9s-4 9-9 9H43c-5 0-9-4-9-9s4-9 9-9Z" fill="#6fbf73"/>
  <path d="M48 126h96c5 0 9 4 9 9v4c0 6-5 11-11 11H50c-6 0-11-5-11-11v-4c0-5 4-9 9-9Z" fill="#f6b84f"/>
  <path d="M54 86h84" stroke="#fff4c7" stroke-width="7" stroke-linecap="round" opacity=".75"/>
  <circle cx="73" cy="65" r="4" fill="#fff4c7"/>
  <circle cx="96" cy="58" r="4" fill="#fff4c7"/>
  <circle cx="120" cy="68" r="4" fill="#fff4c7"/>
</svg>
